<svg xmlns="http://www.w3.org/2000/svg" xmlns:xlink="http://www.w3.org/1999/xlink" width="2500" zoomAndPan="magnify" viewBox="0 0 1874.88 1250.250007" height="1667" preserveAspectRatio="xMidYMid meet" version="1.0"><defs><clipPath id="5e40812165"><path d="M 586.148438 124.90625 L 1280 124.90625 L 1280 1125.558594 L 586.148438 1125.558594 Z M 586.148438 124.90625 " clip-rule="nonzero"/></clipPath><clipPath id="50bb03a889"><path d="M 676.589844 211.652344 L 1189.722656 211.652344 L 1189.722656 724.789062 L 676.589844 724.789062 Z M 676.589844 211.652344 " clip-rule="nonzero"/></clipPath><clipPath id="8e7deabf87"><path d="M 933.15625 211.652344 C 791.457031 211.652344 676.589844 326.523438 676.589844 468.21875 C 676.589844 609.917969 791.457031 724.789062 933.15625 724.789062 C 1074.855469 724.789062 1189.722656 609.917969 1189.722656 468.21875 C 1189.722656 326.523438 1074.855469 211.652344 933.15625 211.652344 Z M 933.15625 211.652344 " clip-rule="nonzero"/></clipPath><clipPath id="6d34529924"><path d="M 0.589844 0.652344 L 513.722656 0.652344 L 513.722656 513.789062 L 0.589844 513.789062 Z M 0.589844 0.652344 " clip-rule="nonzero"/></clipPath><clipPath id="eedc8c651e"><path d="M 257.15625 0.652344 C 115.457031 0.652344 0.589844 115.523438 0.589844 257.21875 C 0.589844 398.917969 115.457031 513.789062 257.15625 513.789062 C 398.855469 513.789062 513.722656 398.917969 513.722656 257.21875 C 513.722656 115.523438 398.855469 0.652344 257.15625 0.652344 Z M 257.15625 0.652344 " clip-rule="nonzero"/></clipPath><clipPath id="12555f5e15"><rect x="0" width="514" y="0" height="514"/></clipPath><clipPath id="a51d3a9ecd"><path d="M 759 284.773438 L 1106 284.773438 L 1106 651.304688 L 759 651.304688 Z M 759 284.773438 " clip-rule="nonzero"/></clipPath></defs><g clip-path="url(#5e40812165)"><path fill="#000000" d="M 933.203125 124.789062 C 741.644531 124.789062 586.402344 280.066406 586.402344 471.644531 C 586.402344 503.511719 590.78125 534.347656 598.84375 563.644531 C 605.820312 589.15625 615.601562 613.535156 627.9375 636.351562 C 630.917969 641.851562 634.0625 647.28125 637.316406 652.613281 L 898.777344 1105.570312 C 899.332031 1106.539062 899.839844 1107.554688 900.457031 1108.5 C 907.644531 1118.886719 919.613281 1125.675781 933.179688 1125.675781 C 946.777344 1125.675781 958.78125 1118.792969 965.960938 1108.371094 L 967.070312 1106.445312 L 1229.007812 652.699219 L 1238.46875 636.316406 C 1250.777344 613.511719 1260.546875 589.121094 1267.558594 563.644531 C 1275.589844 534.347656 1279.976562 503.511719 1279.976562 471.644531 C 1279.976562 280.066406 1124.722656 124.789062 933.203125 124.789062 Z M 933.179688 617.046875 C 852.855469 617.046875 787.753906 551.933594 787.753906 471.644531 C 787.753906 391.308594 852.84375 326.183594 933.179688 326.183594 C 1013.488281 326.183594 1078.554688 391.308594 1078.554688 471.644531 C 1078.554688 551.933594 1013.488281 617.046875 933.179688 617.046875 Z M 933.179688 617.046875 " fill-opacity="1" fill-rule="nonzero"/></g><g clip-path="url(#50bb03a889)"><g clip-path="url(#8e7deabf87)"><g transform="matrix(1, 0, 0, 1, 676, 211)"><g clip-path="url(#12555f5e15)"><g clip-path="url(#6d34529924)"><g clip-path="url(#eedc8c651e)"><path fill="#ebf5ff" d="M 0.589844 0.652344 L 513.722656 0.652344 L 513.722656 513.789062 L 0.589844 513.789062 Z M 0.589844 0.652344 " fill-opacity="1" fill-rule="nonzero"/></g></g></g></g></g></g><g clip-path="url(#a51d3a9ecd)"><path fill="#000000" d="M 950.578125 284.773438 C 940.539062 284.808594 930.503906 285.472656 920.515625 286.890625 C 880.914062 292.488281 843.109375 309.847656 813.054688 336.238281 C 791.429688 355.222656 774.011719 378.832031 761.917969 404.914062 C 760.285156 407.835938 759.417969 411.144531 759.285156 414.492188 C 758.953125 422.890625 763.542969 430.777344 771.0625 434.519531 C 781.894531 440.347656 793.023438 445.621094 804.417969 450.289062 C 818.960938 456.242188 834.316406 461.207031 849.976562 463.855469 C 851.191406 473.8125 852.964844 483.714844 855.40625 493.4375 C 860.636719 514.296875 868.667969 534.355469 879.253906 553.066406 C 885.71875 564.488281 892.382812 574.675781 895.097656 584.835938 C 896.925781 591.667969 897.132812 599.191406 896.597656 607.011719 L 896.15625 606.980469 C 892.574219 606.703125 889.460938 609.351562 889.175781 612.933594 L 888.703125 618.941406 C 888.433594 622.324219 890.828125 625.195312 894.101562 625.753906 C 892.957031 631.96875 891.652344 638.167969 890.085938 644.347656 C 889.328125 647.332031 891.125 650.371094 894.117188 651.121094 C 894.566406 651.246094 895.023438 651.304688 895.492188 651.304688 L 903.378906 651.304688 C 905.945312 651.304688 908.167969 649.546875 908.777344 647.054688 C 910.367188 640.574219 911.734375 634.003906 912.910156 627.355469 L 913.167969 627.371094 C 916.75 627.644531 919.863281 624.980469 920.148438 621.398438 L 920.625 615.390625 C 920.882812 612.058594 918.558594 609.246094 915.351562 608.621094 C 915.890625 601.257812 915.898438 593.683594 914.566406 586.019531 C 937.941406 569.96875 960.191406 552.292969 980.851562 532.832031 C 999.84375 514.945312 1017.519531 495.652344 1033.820312 475.269531 C 1040.96875 474.269531 1047.832031 471.78125 1054.113281 468.53125 C 1062.535156 464.183594 1069.972656 458.5 1077.121094 452.828125 C 1084.917969 446.648438 1092.5 440.199219 1099.960938 433.644531 C 1103.519531 431.085938 1105.675781 426.988281 1105.851562 422.613281 C 1105.953125 420.265625 1105.484375 417.898438 1104.453125 415.785156 C 1097.964844 399.515625 1090.265625 383.710938 1081.320312 368.667969 C 1077.480469 362.210938 1073.324219 355.972656 1069.03125 349.808594 C 1067.957031 348.160156 1067.542969 346.160156 1067.617188 344.195312 C 1067.691406 342.601562 1068.074219 341.019531 1068.882812 339.652344 C 1070.464844 337.15625 1072.007812 334.621094 1073.421875 332.023438 C 1074.582031 329.898438 1075.554688 327.683594 1076.578125 325.5 C 1077.230469 324.160156 1077.597656 322.667969 1077.65625 321.167969 C 1077.835938 316.453125 1074.921875 312.140625 1070.449219 310.605469 C 1056.164062 304.683594 1041.519531 299.601562 1026.597656 295.535156 C 1005.125 289.6875 982.933594 285.789062 960.625 284.933594 C 957.292969 284.824219 953.925781 284.765625 950.578125 284.773438 Z M 980.042969 320.703125 C 984.90625 320.570312 989.773438 320.578125 994.636719 320.71875 C 995.261719 320.726562 995.871094 320.960938 996.34375 321.367188 L 1007.113281 330.773438 C 1008.238281 331.765625 1008.332031 333.472656 1007.347656 334.589844 C 1006.949219 335.039062 1006.414062 335.339844 1005.824219 335.457031 C 977.019531 340.71875 948.695312 348.484375 921.222656 358.605469 C 880.003906 373.789062 840.804688 394.359375 804.824219 419.566406 C 804.203125 420.015625 803.417969 420.171875 802.660156 420.007812 L 793.546875 417.859375 C 792.089844 417.515625 791.191406 416.058594 791.53125 414.601562 C 791.621094 414.191406 791.8125 413.816406 792.082031 413.492188 C 815.996094 383.886719 846.734375 359.78125 881.253906 343.726562 C 912.160156 329.375 946.003906 321.636719 980.042969 320.703125 Z M 1024.300781 355.480469 C 1024.382812 355.480469 1024.476562 355.480469 1024.558594 355.480469 C 1025.339844 355.539062 1026.074219 355.898438 1026.605469 356.472656 L 1042.144531 373.167969 C 1043.316406 374.40625 1043.269531 376.375 1042.019531 377.546875 C 1041.667969 377.882812 1041.242188 378.121094 1040.792969 378.257812 C 1019.234375 385.027344 997.703125 392.058594 976.351562 399.421875 C 948.253906 409.109375 920.398438 419.390625 892.660156 430.09375 C 892.382812 430.1875 892.09375 430.246094 891.792969 430.261719 C 882.953125 433.785156 873.457031 435.785156 863.917969 435.792969 C 857.246094 435.800781 850.632812 434.867188 844.203125 433.128906 C 842.5625 432.652344 841.601562 430.9375 842.078125 429.296875 C 842.3125 428.488281 842.859375 427.8125 843.601562 427.414062 C 881.253906 408.320312 919.972656 391.285156 959.625 376.75 C 980.675781 369.035156 1001.957031 361.996094 1023.449219 355.613281 C 1023.726562 355.53125 1024.015625 355.488281 1024.300781 355.480469 Z M 1047.273438 395.78125 C 1047.308594 395.78125 1047.339844 395.78125 1047.375 395.78125 C 1047.566406 395.78125 1047.78125 395.78125 1047.972656 395.800781 C 1049.671875 395.898438 1051.273438 396.617188 1052.480469 397.816406 L 1067.582031 412.960938 C 1070.289062 415.675781 1070.28125 420.074219 1067.574219 422.78125 C 1067.109375 423.246094 1066.582031 423.640625 1066.007812 423.957031 L 1029.972656 443.914062 C 1027.257812 445.421875 1023.875 444.949219 1021.675781 442.738281 L 1003.53125 424.546875 C 1000.824219 421.832031 1000.832031 417.433594 1003.542969 414.726562 C 1004.164062 414.101562 1004.898438 413.601562 1005.714844 413.257812 L 1044.808594 396.324219 C 1045.574219 396.007812 1046.425781 395.816406 1047.273438 395.78125 Z M 945.40625 451.851562 C 947.863281 451.71875 950.3125 451.730469 952.742188 451.921875 C 966.707031 452.988281 980.035156 459.757812 993.660156 466.15625 C 999.269531 468.789062 1005.164062 471.335938 1011.328125 473.1875 C 997.792969 489.339844 983.347656 504.734375 968.003906 519.179688 C 949.4375 536.671875 929.453125 552.648438 908.519531 567.300781 C 904.570312 558.707031 899.699219 551.050781 895.632812 543.859375 C 885.878906 526.625 878.429688 508.058594 873.597656 488.847656 C 871.691406 481.265625 870.242188 473.570312 869.160156 465.824219 C 876.972656 466.046875 884.8125 465.582031 892.617188 464.164062 C 903.238281 462.234375 913.242188 458.726562 923.140625 455.96875 C 930.5625 453.902344 938.03125 452.246094 945.40625 451.851562 Z M 945.40625 451.851562 " fill-opacity="1" fill-rule="nonzero"/></g></svg>