<svg xmlns="http://www.w3.org/2000/svg" xmlns:xlink="http://www.w3.org/1999/xlink" width="1080" zoomAndPan="magnify" viewBox="0 0 810 1012.49997" height="1350" preserveAspectRatio="xMidYMid meet" version="1.0"><defs><clipPath id="9ed78bdfee"><path d="M 123.753906 105.9375 L 682.226562 105.9375 L 682.226562 911.039062 L 123.753906 911.039062 Z M 123.753906 105.9375 " clip-rule="nonzero"/></clipPath><clipPath id="61d40706a1"><path d="M 0.421875 0.261719 L 419.574219 0.261719 L 419.574219 419.414062 L 0.421875 419.414062 Z M 0.421875 0.261719 " clip-rule="nonzero"/></clipPath><clipPath id="9a300da2a4"><path d="M 210 0.261719 C 94.253906 0.261719 0.421875 94.09375 0.421875 209.835938 C 0.421875 325.582031 94.253906 419.414062 210 419.414062 C 325.746094 419.414062 419.574219 325.582031 419.574219 209.835938 C 419.574219 94.09375 325.746094 0.261719 210 0.261719 Z M 210 0.261719 " clip-rule="nonzero"/></clipPath><clipPath id="c634ed5382"><path d="M 0.421875 0.261719 L 419.574219 0.261719 L 419.574219 419.414062 L 0.421875 419.414062 Z M 0.421875 0.261719 " clip-rule="nonzero"/></clipPath><clipPath id="4565eafd32"><path d="M 210 0.261719 C 94.253906 0.261719 0.421875 94.09375 0.421875 209.835938 C 0.421875 325.582031 94.253906 419.414062 210 419.414062 C 325.746094 419.414062 419.574219 325.582031 419.574219 209.835938 C 419.574219 94.09375 325.746094 0.261719 210 0.261719 Z M 210 0.261719 " clip-rule="nonzero"/></clipPath><clipPath id="a924b75622"><rect x="0" width="420" y="0" height="420"/></clipPath><clipPath id="c469aad65d"><path d="M 67 59.992188 L 352 59.992188 L 352 359.390625 L 67 359.390625 Z M 67 59.992188 " clip-rule="nonzero"/></clipPath><clipPath id="1ed089d3f0"><rect x="0" width="420" y="0" height="420"/></clipPath></defs><g clip-path="url(#9ed78bdfee)"><path fill="#000000" d="M 403 105.839844 C 248.867188 105.839844 123.957031 230.773438 123.957031 384.914062 C 123.957031 410.550781 127.476562 435.363281 133.96875 458.933594 C 139.582031 479.460938 147.453125 499.074219 157.375 517.433594 C 159.773438 521.859375 162.304688 526.226562 164.921875 530.519531 L 375.300781 894.957031 C 375.75 895.734375 376.15625 896.554688 376.652344 897.316406 C 382.4375 905.671875 392.066406 911.132812 402.980469 911.132812 C 413.925781 911.132812 423.582031 905.59375 429.359375 897.210938 L 430.253906 895.660156 L 641.011719 530.585938 L 648.625 517.40625 C 658.53125 499.058594 666.390625 479.433594 672.035156 458.933594 C 678.496094 435.363281 682.023438 410.550781 682.023438 384.914062 C 682.023438 230.773438 557.105469 105.839844 403 105.839844 Z M 402.980469 501.902344 C 338.351562 501.902344 285.96875 449.511719 285.96875 384.914062 C 285.96875 320.277344 338.34375 267.878906 402.980469 267.878906 C 467.601562 267.878906 519.957031 320.277344 519.957031 384.914062 C 519.957031 449.511719 467.601562 501.902344 402.980469 501.902344 Z M 402.980469 501.902344 " fill-opacity="1" fill-rule="nonzero"/></g><g transform="matrix(1, 0, 0, 1, 198, 170)"><g clip-path="url(#1ed089d3f0)"><g clip-path="url(#61d40706a1)"><g clip-path="url(#9a300da2a4)"><g transform="matrix(1, 0, 0, 1, -0.000000000000028422, 0)"><g clip-path="url(#a924b75622)"><g clip-path="url(#c634ed5382)"><g clip-path="url(#4565eafd32)"><path fill="#e7f6fc" d="M 0.421875 0.261719 L 419.574219 0.261719 L 419.574219 419.414062 L 0.421875 419.414062 Z M 0.421875 0.261719 " fill-opacity="1" fill-rule="nonzero"/></g></g></g></g></g></g><g clip-path="url(#c469aad65d)"><path fill="#000000" d="M 224.230469 59.992188 C 216.03125 60.019531 207.832031 60.5625 199.671875 61.71875 C 167.324219 66.292969 136.445312 80.472656 111.894531 102.027344 C 94.230469 117.535156 80.003906 136.820312 70.125 158.125 C 68.789062 160.511719 68.082031 163.214844 67.972656 165.949219 C 67.703125 172.808594 71.449219 179.253906 77.59375 182.308594 C 86.441406 187.070312 95.53125 191.378906 104.839844 195.1875 C 116.71875 200.054688 129.261719 204.109375 142.054688 206.273438 C 143.046875 214.40625 144.496094 222.496094 146.488281 230.4375 C 150.761719 247.476562 157.324219 263.859375 165.972656 279.144531 C 171.25 288.472656 176.695312 296.792969 178.914062 305.09375 C 180.402344 310.675781 180.574219 316.820312 180.136719 323.210938 L 179.777344 323.183594 C 176.851562 322.957031 174.304688 325.121094 174.074219 328.046875 L 173.6875 332.953125 C 173.46875 335.714844 175.421875 338.0625 178.097656 338.519531 C 177.164062 343.59375 176.097656 348.65625 174.816406 353.707031 C 174.199219 356.144531 175.667969 358.625 178.109375 359.238281 C 178.476562 359.339844 178.851562 359.386719 179.234375 359.386719 L 185.675781 359.386719 C 187.773438 359.386719 189.589844 357.953125 190.085938 355.917969 C 191.386719 350.625 192.5 345.253906 193.460938 339.824219 L 193.671875 339.839844 C 196.597656 340.0625 199.140625 337.886719 199.375 334.960938 L 199.761719 330.054688 C 199.972656 327.332031 198.074219 325.03125 195.453125 324.523438 C 195.898438 318.507812 195.902344 312.320312 194.816406 306.0625 C 213.90625 292.949219 232.082031 278.511719 248.957031 262.613281 C 264.472656 248.003906 278.910156 232.246094 292.226562 215.597656 C 298.066406 214.78125 303.671875 212.746094 308.800781 210.089844 C 315.683594 206.539062 321.757812 201.898438 327.597656 197.265625 C 333.964844 192.214844 340.15625 186.949219 346.253906 181.59375 C 349.160156 179.503906 350.921875 176.15625 351.066406 172.585938 C 351.148438 170.664062 350.765625 168.734375 349.921875 167.003906 C 344.621094 153.714844 338.332031 140.808594 331.027344 128.519531 C 327.890625 123.246094 324.492188 118.148438 320.988281 113.113281 C 320.113281 111.765625 319.769531 110.132812 319.832031 108.527344 C 319.894531 107.226562 320.207031 105.933594 320.867188 104.820312 C 322.160156 102.777344 323.417969 100.707031 324.574219 98.585938 C 325.519531 96.851562 326.316406 95.039062 327.152344 93.257812 C 327.683594 92.164062 327.984375 90.945312 328.03125 89.71875 C 328.183594 85.867188 325.800781 82.34375 322.144531 81.089844 C 310.476562 76.253906 298.515625 72.101562 286.328125 68.78125 C 268.785156 64.003906 250.660156 60.820312 232.4375 60.121094 C 229.714844 60.03125 226.964844 59.984375 224.230469 59.992188 Z M 248.296875 89.339844 C 252.269531 89.230469 256.246094 89.234375 260.21875 89.351562 C 260.730469 89.359375 261.226562 89.550781 261.613281 89.882812 L 270.410156 97.566406 C 271.332031 98.375 271.40625 99.769531 270.601562 100.679688 C 270.277344 101.050781 269.839844 101.292969 269.355469 101.390625 C 245.828125 105.691406 222.691406 112.03125 200.25 120.300781 C 166.582031 132.703125 134.5625 149.503906 105.171875 170.09375 C 104.664062 170.460938 104.023438 170.589844 103.40625 170.453125 L 95.960938 168.699219 C 94.769531 168.421875 94.035156 167.230469 94.3125 166.039062 C 94.386719 165.707031 94.546875 165.398438 94.761719 165.132812 C 114.296875 140.949219 139.40625 121.257812 167.605469 108.144531 C 192.847656 96.421875 220.496094 90.101562 248.296875 89.339844 Z M 284.449219 117.746094 C 284.519531 117.746094 284.59375 117.746094 284.660156 117.746094 C 285.300781 117.792969 285.898438 118.085938 286.335938 118.558594 L 299.023438 132.191406 C 299.984375 133.207031 299.941406 134.8125 298.921875 135.773438 C 298.636719 136.042969 298.289062 136.242188 297.921875 136.351562 C 280.3125 141.882812 262.722656 147.625 245.285156 153.640625 C 222.332031 161.554688 199.578125 169.953125 176.917969 178.695312 C 176.695312 178.769531 176.457031 178.816406 176.210938 178.832031 C 168.992188 181.710938 161.234375 183.34375 153.445312 183.347656 C 147.992188 183.355469 142.589844 182.59375 137.339844 181.171875 C 135.996094 180.785156 135.214844 179.382812 135.601562 178.042969 C 135.792969 177.382812 136.242188 176.832031 136.847656 176.503906 C 167.605469 160.90625 199.230469 146.992188 231.621094 135.117188 C 248.816406 128.816406 266.199219 123.066406 283.753906 117.855469 C 283.980469 117.789062 284.21875 117.753906 284.449219 117.746094 Z M 303.214844 150.667969 C 303.242188 150.667969 303.269531 150.667969 303.296875 150.667969 C 303.453125 150.667969 303.632812 150.667969 303.789062 150.679688 C 305.175781 150.761719 306.480469 151.347656 307.46875 152.328125 L 319.804688 164.699219 C 322.015625 166.917969 322.011719 170.507812 319.796875 172.722656 C 319.417969 173.101562 318.988281 173.421875 318.519531 173.679688 L 289.082031 189.984375 C 286.863281 191.214844 284.101562 190.828125 282.304688 189.023438 L 267.484375 174.164062 C 265.273438 171.945312 265.28125 168.351562 267.492188 166.140625 C 268.003906 165.628906 268.601562 165.222656 269.269531 164.941406 L 301.203125 151.109375 C 301.828125 150.851562 302.523438 150.695312 303.214844 150.667969 Z M 220.003906 196.46875 C 222.011719 196.359375 224.011719 196.367188 226 196.523438 C 237.402344 197.394531 248.289062 202.925781 259.421875 208.152344 C 264.003906 210.300781 268.820312 212.382812 273.855469 213.894531 C 262.796875 227.089844 251 239.664062 238.464844 251.460938 C 223.296875 265.75 206.972656 278.804688 189.875 290.773438 C 186.648438 283.75 182.667969 277.496094 179.347656 271.625 C 171.378906 257.546875 165.296875 242.378906 161.351562 226.6875 C 159.792969 220.496094 158.609375 214.207031 157.722656 207.878906 C 164.105469 208.0625 170.507812 207.683594 176.886719 206.527344 C 185.5625 204.945312 193.734375 202.082031 201.816406 199.828125 C 207.878906 198.140625 213.984375 196.789062 220.003906 196.46875 Z M 220.003906 196.46875 " fill-opacity="1" fill-rule="nonzero"/></g></g></g></svg>