<svg xmlns="http://www.w3.org/2000/svg" xmlns:xlink="http://www.w3.org/1999/xlink" width="2500" zoomAndPan="magnify" viewBox="0 0 1874.88 1250.250007" height="1667" preserveAspectRatio="xMidYMid meet" version="1.0"><defs><clipPath id="5cab3c5217"><path d="M 0.503906 0 L 1874.257812 0 L 1874.257812 1249.5 L 0.503906 1249.5 Z M 0.503906 0 " clip-rule="nonzero"/></clipPath><clipPath id="ec22348080"><path d="M 586.148438 124.90625 L 1280 124.90625 L 1280 1125.558594 L 586.148438 1125.558594 Z M 586.148438 124.90625 " clip-rule="nonzero"/></clipPath><clipPath id="0d93c4e2d5"><path d="M 676.589844 211.652344 L 1189.722656 211.652344 L 1189.722656 724.789062 L 676.589844 724.789062 Z M 676.589844 211.652344 " clip-rule="nonzero"/></clipPath><clipPath id="ffe852c241"><path d="M 933.15625 211.652344 C 791.457031 211.652344 676.589844 326.523438 676.589844 468.21875 C 676.589844 609.917969 791.457031 724.789062 933.15625 724.789062 C 1074.855469 724.789062 1189.722656 609.917969 1189.722656 468.21875 C 1189.722656 326.523438 1074.855469 211.652344 933.15625 211.652344 Z M 933.15625 211.652344 " clip-rule="nonzero"/></clipPath><clipPath id="6f8049fdd1"><path d="M 0.589844 0.652344 L 513.722656 0.652344 L 513.722656 513.789062 L 0.589844 513.789062 Z M 0.589844 0.652344 " clip-rule="nonzero"/></clipPath><clipPath id="ade8832c19"><path d="M 257.15625 0.652344 C 115.457031 0.652344 0.589844 115.523438 0.589844 257.21875 C 0.589844 398.917969 115.457031 513.789062 257.15625 513.789062 C 398.855469 513.789062 513.722656 398.917969 513.722656 257.21875 C 513.722656 115.523438 398.855469 0.652344 257.15625 0.652344 Z M 257.15625 0.652344 " clip-rule="nonzero"/></clipPath><clipPath id="03f4d19919"><rect x="0" width="514" y="0" height="514"/></clipPath><clipPath id="9bfa9e8897"><path d="M 769 272 L 1053 272 L 1053 665.546875 L 769 665.546875 Z M 769 272 " clip-rule="nonzero"/></clipPath></defs><g clip-path="url(#5cab3c5217)"><path fill="#ffffff" d="M 0.503906 0 L 1874.378906 0 L 1874.378906 1249.5 L 0.503906 1249.5 Z M 0.503906 0 " fill-opacity="1" fill-rule="nonzero"/><path fill="#ffffff" d="M 0.503906 0 L 1874.378906 0 L 1874.378906 1249.5 L 0.503906 1249.5 Z M 0.503906 0 " fill-opacity="1" fill-rule="nonzero"/></g><g clip-path="url(#ec22348080)"><path fill="#000000" d="M 933.203125 124.789062 C 741.644531 124.789062 586.402344 280.066406 586.402344 471.644531 C 586.402344 503.511719 590.78125 534.347656 598.84375 563.644531 C 605.820312 589.15625 615.601562 613.535156 627.9375 636.351562 C 630.917969 641.851562 634.0625 647.28125 637.316406 652.613281 L 898.777344 1105.570312 C 899.332031 1106.539062 899.839844 1107.554688 900.457031 1108.5 C 907.644531 1118.886719 919.613281 1125.675781 933.179688 1125.675781 C 946.777344 1125.675781 958.78125 1118.792969 965.960938 1108.371094 L 967.070312 1106.445312 L 1229.007812 652.699219 L 1238.46875 636.316406 C 1250.777344 613.511719 1260.546875 589.121094 1267.558594 563.644531 C 1275.589844 534.347656 1279.976562 503.511719 1279.976562 471.644531 C 1279.976562 280.066406 1124.722656 124.789062 933.203125 124.789062 Z M 933.179688 617.046875 C 852.855469 617.046875 787.753906 551.933594 787.753906 471.644531 C 787.753906 391.308594 852.84375 326.183594 933.179688 326.183594 C 1013.488281 326.183594 1078.554688 391.308594 1078.554688 471.644531 C 1078.554688 551.933594 1013.488281 617.046875 933.179688 617.046875 Z M 933.179688 617.046875 " fill-opacity="1" fill-rule="nonzero"/></g><g clip-path="url(#0d93c4e2d5)"><g clip-path="url(#ffe852c241)"><g transform="matrix(1, 0, 0, 1, 676, 211)"><g clip-path="url(#03f4d19919)"><g clip-path="url(#6f8049fdd1)"><g clip-path="url(#ade8832c19)"><path fill="#ebf5ff" d="M 0.589844 0.652344 L 513.722656 0.652344 L 513.722656 513.789062 L 0.589844 513.789062 Z M 0.589844 0.652344 " fill-opacity="1" fill-rule="nonzero"/></g></g></g></g></g></g><path fill="#000000" d="M 1053.417969 395.9375 L 994.167969 395.9375 C 992.210938 395.9375 990.625 397.523438 990.625 399.476562 L 990.625 454.921875 C 990.625 456.800781 992.089844 458.332031 993.9375 458.449219 L 995.558594 478.410156 C 995.753906 480.804688 997.753906 482.644531 1000.160156 482.644531 L 1047.425781 482.644531 C 1049.828125 482.644531 1051.828125 480.804688 1052.023438 478.410156 L 1053.644531 458.449219 C 1055.496094 458.332031 1056.957031 456.800781 1056.957031 454.921875 L 1056.957031 399.476562 C 1056.957031 397.523438 1055.375 395.9375 1053.417969 395.9375 " fill-opacity="1" fill-rule="nonzero"/><g clip-path="url(#9bfa9e8897)"><path fill="#000000" d="M 1037.367188 576.957031 L 1011.148438 576.957031 C 1005.785156 576.957031 1001.421875 572.597656 1001.421875 567.246094 L 1001.421875 553.5 C 998.730469 565.359375 994.296875 578.589844 989.820312 586.761719 C 982.828125 599.53125 955.507812 631.605469 929.324219 615.503906 C 912.859375 605.378906 907.617188 599.054688 897.835938 575.433594 C 888.054688 551.8125 815.300781 389.992188 817.699219 370.410156 C 820.097656 350.828125 826.347656 326.203125 858.335938 322.515625 C 890.328125 318.828125 963.277344 311.9375 978.90625 324.125 C 992.148438 334.449219 1001.300781 342.367188 1003.027344 358.109375 C 1003.597656 358 1004.1875 357.941406 1004.789062 357.941406 L 1042.792969 357.941406 C 1047.492188 357.941406 1051.390625 361.441406 1052.015625 365.96875 C 1052.757812 358.847656 1053.078125 352.703125 1052.570312 350.230469 C 1051.15625 343.355469 1026.320312 290.230469 993.519531 280.386719 C 960.71875 270.539062 924.007812 272.164062 901.855469 272.339844 C 879.703125 272.511719 833.085938 281.527344 820.078125 287.652344 C 816.324219 289.421875 758.027344 311.714844 771.570312 384.121094 C 785.117188 456.527344 836.707031 560.257812 848.980469 586.242188 C 861.257812 612.222656 879.792969 665.445312 942.359375 665.5 C 1004.925781 665.554688 1036.171875 605.402344 1041.578125 589.886719 C 1043.15625 585.34375 1044.328125 579.4375 1045.113281 573.109375 C 1043.332031 575.445312 1040.527344 576.957031 1037.367188 576.957031 " fill-opacity="1" fill-rule="nonzero"/></g><path fill="#000000" d="M 1004.789062 362.855469 C 1002.367188 362.855469 1000.402344 364.816406 1000.402344 367.238281 L 1000.402344 391.019531 L 1047.183594 391.019531 L 1047.183594 367.238281 C 1047.183594 364.816406 1045.21875 362.855469 1042.792969 362.855469 L 1004.789062 362.855469 " fill-opacity="1" fill-rule="nonzero"/><path fill="#000000" d="M 1024.257812 551.941406 C 1028.125 551.941406 1031.257812 555.070312 1031.257812 558.929688 C 1031.257812 562.792969 1028.125 565.921875 1024.257812 565.921875 C 1020.390625 565.921875 1017.257812 562.792969 1017.257812 558.929688 C 1017.257812 555.070312 1020.390625 551.941406 1024.257812 551.941406 Z M 1001.335938 518.285156 C 1001.335938 519.667969 1002.457031 520.789062 1003.839844 520.789062 C 1005.226562 520.789062 1006.34375 521.910156 1006.34375 523.292969 L 1006.34375 567.246094 C 1006.34375 569.890625 1008.496094 572.039062 1011.148438 572.039062 L 1037.367188 572.039062 C 1040.023438 572.039062 1042.171875 569.890625 1042.171875 567.246094 L 1042.171875 523.292969 C 1042.171875 521.910156 1043.292969 520.789062 1044.675781 520.789062 C 1046.058594 520.789062 1047.183594 519.667969 1047.183594 518.285156 L 1047.183594 487.5625 L 1001.335938 487.5625 L 1001.335938 518.285156 " fill-opacity="1" fill-rule="nonzero"/></svg>