<svg xmlns="http://www.w3.org/2000/svg" xmlns:xlink="http://www.w3.org/1999/xlink" width="1080" zoomAndPan="magnify" viewBox="0 0 810 1012.49997" height="1350" preserveAspectRatio="xMidYMid meet" version="1.0"><defs><clipPath id="a34cbd1a15"><path d="M 123.753906 105.9375 L 682.226562 105.9375 L 682.226562 911.039062 L 123.753906 911.039062 Z M 123.753906 105.9375 " clip-rule="nonzero"/></clipPath><clipPath id="1d2e91ce43"><path d="M 198.421875 170.261719 L 617.574219 170.261719 L 617.574219 589.414062 L 198.421875 589.414062 Z M 198.421875 170.261719 " clip-rule="nonzero"/></clipPath><clipPath id="d2b8919192"><path d="M 408 170.261719 C 292.253906 170.261719 198.421875 264.09375 198.421875 379.835938 C 198.421875 495.582031 292.253906 589.414062 408 589.414062 C 523.746094 589.414062 617.574219 495.582031 617.574219 379.835938 C 617.574219 264.09375 523.746094 170.261719 408 170.261719 Z M 408 170.261719 " clip-rule="nonzero"/></clipPath><clipPath id="34a80da888"><path d="M 0.421875 0.261719 L 419.574219 0.261719 L 419.574219 419.414062 L 0.421875 419.414062 Z M 0.421875 0.261719 " clip-rule="nonzero"/></clipPath><clipPath id="2535e32f12"><path d="M 210 0.261719 C 94.253906 0.261719 0.421875 94.09375 0.421875 209.835938 C 0.421875 325.582031 94.253906 419.414062 210 419.414062 C 325.746094 419.414062 419.574219 325.582031 419.574219 209.835938 C 419.574219 94.09375 325.746094 0.261719 210 0.261719 Z M 210 0.261719 " clip-rule="nonzero"/></clipPath><clipPath id="6ea37b44b0"><rect x="0" width="420" y="0" height="420"/></clipPath><clipPath id="4e43033ef0"><path d="M 467 325 L 519.734375 325 L 519.734375 393 L 467 393 Z M 467 325 " clip-rule="nonzero"/></clipPath><clipPath id="b6da383ccf"><path d="M 295 228 L 517 228 L 517 535.542969 L 295 535.542969 Z M 295 228 " clip-rule="nonzero"/></clipPath></defs><g clip-path="url(#a34cbd1a15)"><path fill="#000000" d="M 403 105.839844 C 248.867188 105.839844 123.957031 230.773438 123.957031 384.914062 C 123.957031 410.550781 127.476562 435.363281 133.96875 458.933594 C 139.582031 479.460938 147.453125 499.074219 157.375 517.433594 C 159.773438 521.859375 162.304688 526.226562 164.921875 530.519531 L 375.300781 894.957031 C 375.75 895.734375 376.15625 896.554688 376.652344 897.316406 C 382.4375 905.671875 392.066406 911.132812 402.980469 911.132812 C 413.925781 911.132812 423.582031 905.59375 429.359375 897.210938 L 430.253906 895.660156 L 641.011719 530.585938 L 648.625 517.40625 C 658.53125 499.054688 666.390625 479.433594 672.035156 458.933594 C 678.496094 435.363281 682.023438 410.550781 682.023438 384.914062 C 682.023438 230.773438 557.105469 105.839844 403 105.839844 Z M 402.980469 501.902344 C 338.351562 501.902344 285.96875 449.511719 285.96875 384.914062 C 285.96875 320.277344 338.34375 267.878906 402.980469 267.878906 C 467.601562 267.878906 519.957031 320.277344 519.957031 384.914062 C 519.957031 449.511719 467.601562 501.902344 402.980469 501.902344 Z M 402.980469 501.902344 " fill-opacity="1" fill-rule="nonzero"/></g><g clip-path="url(#1d2e91ce43)"><g clip-path="url(#d2b8919192)"><g transform="matrix(1, 0, 0, 1, 198, 170)"><g clip-path="url(#6ea37b44b0)"><g clip-path="url(#34a80da888)"><g clip-path="url(#2535e32f12)"><path fill="#e7f6fc" d="M 0.421875 0.261719 L 419.574219 0.261719 L 419.574219 419.414062 L 0.421875 419.414062 Z M 0.421875 0.261719 " fill-opacity="1" fill-rule="nonzero"/></g></g></g></g></g></g><g clip-path="url(#4e43033ef0)"><path fill="#000000" d="M 516.910156 325.257812 L 470.722656 325.257812 C 469.199219 325.257812 467.960938 326.492188 467.960938 328.019531 L 467.960938 371.261719 C 467.960938 372.730469 469.101562 373.921875 470.542969 374.015625 L 471.808594 389.582031 C 471.960938 391.449219 473.519531 392.886719 475.394531 392.886719 L 512.238281 392.886719 C 514.113281 392.886719 515.671875 391.449219 515.824219 389.582031 L 517.085938 374.015625 C 518.53125 373.921875 519.667969 372.730469 519.667969 371.261719 L 519.667969 328.019531 C 519.667969 326.492188 518.433594 325.257812 516.910156 325.257812 " fill-opacity="1" fill-rule="nonzero"/></g><g clip-path="url(#b6da383ccf)"><path fill="#000000" d="M 504.398438 466.449219 L 483.960938 466.449219 C 479.78125 466.449219 476.378906 463.046875 476.378906 458.871094 L 476.378906 448.152344 C 474.28125 457.398438 470.824219 467.71875 467.335938 474.09375 C 461.886719 484.054688 440.589844 509.070312 420.179688 496.511719 C 407.34375 488.613281 403.257812 483.683594 395.632812 465.257812 C 388.007812 446.835938 331.296875 320.621094 333.167969 305.347656 C 335.035156 290.070312 339.90625 270.867188 364.84375 267.992188 C 389.78125 265.113281 446.644531 259.738281 458.828125 269.246094 C 469.152344 277.296875 476.285156 283.472656 477.628906 295.753906 C 478.074219 295.667969 478.53125 295.621094 479.003906 295.621094 L 508.628906 295.621094 C 512.292969 295.621094 515.332031 298.351562 515.816406 301.882812 C 516.394531 296.328125 516.644531 291.535156 516.25 289.605469 C 515.148438 284.246094 495.789062 242.808594 470.21875 235.128906 C 444.652344 227.449219 416.035156 228.71875 398.765625 228.855469 C 381.5 228.988281 345.160156 236.019531 335.019531 240.800781 C 332.09375 242.175781 286.652344 259.566406 297.210938 316.042969 C 307.765625 372.515625 347.980469 453.421875 357.550781 473.6875 C 367.121094 493.953125 381.570312 535.464844 430.339844 535.507812 C 479.109375 535.546875 503.464844 488.632812 507.679688 476.53125 C 508.910156 472.988281 509.824219 468.382812 510.4375 463.445312 C 509.050781 465.269531 506.859375 466.449219 504.398438 466.449219 " fill-opacity="1" fill-rule="nonzero"/></g><path fill="#000000" d="M 479.003906 299.453125 C 477.117188 299.453125 475.582031 300.984375 475.582031 302.875 L 475.582031 321.421875 L 512.050781 321.421875 L 512.050781 302.875 C 512.050781 300.984375 510.519531 299.453125 508.628906 299.453125 L 479.003906 299.453125 " fill-opacity="1" fill-rule="nonzero"/><path fill="#000000" d="M 494.179688 446.933594 C 497.195312 446.933594 499.636719 449.375 499.636719 452.386719 C 499.636719 455.398438 497.195312 457.839844 494.179688 457.839844 C 491.167969 457.839844 488.722656 455.398438 488.722656 452.386719 C 488.722656 449.375 491.167969 446.933594 494.179688 446.933594 Z M 476.3125 420.683594 C 476.3125 421.761719 477.183594 422.636719 478.265625 422.636719 C 479.34375 422.636719 480.214844 423.511719 480.214844 424.589844 L 480.214844 458.871094 C 480.214844 460.9375 481.894531 462.613281 483.960938 462.613281 L 504.398438 462.613281 C 506.46875 462.613281 508.144531 460.9375 508.144531 458.871094 L 508.144531 424.589844 C 508.144531 423.511719 509.015625 422.636719 510.097656 422.636719 C 511.171875 422.636719 512.050781 421.761719 512.050781 420.683594 L 512.050781 396.722656 L 476.3125 396.722656 L 476.3125 420.683594 " fill-opacity="1" fill-rule="nonzero"/></svg>