<svg xmlns="http://www.w3.org/2000/svg" xmlns:xlink="http://www.w3.org/1999/xlink" width="2500" zoomAndPan="magnify" viewBox="0 0 1874.88 1250.250007" height="1667" preserveAspectRatio="xMidYMid meet" version="1.0"><defs><clipPath id="c443a4887a"><path d="M 0.503906 0 L 1874.257812 0 L 1874.257812 1249.5 L 0.503906 1249.5 Z M 0.503906 0 " clip-rule="nonzero"/></clipPath><clipPath id="3fcb98d8a4"><path d="M 586.148438 124.90625 L 1280 124.90625 L 1280 1125.558594 L 586.148438 1125.558594 Z M 586.148438 124.90625 " clip-rule="nonzero"/></clipPath><clipPath id="70cdff594f"><path d="M 676.589844 211.652344 L 1189.722656 211.652344 L 1189.722656 724.789062 L 676.589844 724.789062 Z M 676.589844 211.652344 " clip-rule="nonzero"/></clipPath><clipPath id="973fdb8050"><path d="M 933.15625 211.652344 C 791.457031 211.652344 676.589844 326.523438 676.589844 468.21875 C 676.589844 609.917969 791.457031 724.789062 933.15625 724.789062 C 1074.855469 724.789062 1189.722656 609.917969 1189.722656 468.21875 C 1189.722656 326.523438 1074.855469 211.652344 933.15625 211.652344 Z M 933.15625 211.652344 " clip-rule="nonzero"/></clipPath><clipPath id="c7622b19ab"><path d="M 0.589844 0.652344 L 513.722656 0.652344 L 513.722656 513.789062 L 0.589844 513.789062 Z M 0.589844 0.652344 " clip-rule="nonzero"/></clipPath><clipPath id="d3704e0c92"><path d="M 257.15625 0.652344 C 115.457031 0.652344 0.589844 115.523438 0.589844 257.21875 C 0.589844 398.917969 115.457031 513.789062 257.15625 513.789062 C 398.855469 513.789062 513.722656 398.917969 513.722656 257.21875 C 513.722656 115.523438 398.855469 0.652344 257.15625 0.652344 Z M 257.15625 0.652344 " clip-rule="nonzero"/></clipPath><clipPath id="3920e8cae3"><rect x="0" width="514" y="0" height="514"/></clipPath></defs><g clip-path="url(#c443a4887a)"><path fill="#ffffff" d="M 0.503906 0 L 1874.378906 0 L 1874.378906 1249.5 L 0.503906 1249.5 Z M 0.503906 0 " fill-opacity="1" fill-rule="nonzero"/><path fill="#ffffff" d="M 0.503906 0 L 1874.378906 0 L 1874.378906 1249.5 L 0.503906 1249.5 Z M 0.503906 0 " fill-opacity="1" fill-rule="nonzero"/></g><g clip-path="url(#3fcb98d8a4)"><path fill="#000000" d="M 933.203125 124.789062 C 741.644531 124.789062 586.402344 280.066406 586.402344 471.644531 C 586.402344 503.511719 590.78125 534.347656 598.84375 563.644531 C 605.820312 589.15625 615.601562 613.535156 627.9375 636.351562 C 630.917969 641.851562 634.0625 647.28125 637.316406 652.613281 L 898.777344 1105.570312 C 899.332031 1106.539062 899.839844 1107.554688 900.457031 1108.5 C 907.644531 1118.886719 919.613281 1125.675781 933.179688 1125.675781 C 946.777344 1125.675781 958.78125 1118.792969 965.960938 1108.371094 L 967.070312 1106.445312 L 1229.007812 652.699219 L 1238.46875 636.316406 C 1250.777344 613.511719 1260.546875 589.121094 1267.558594 563.644531 C 1275.589844 534.347656 1279.976562 503.511719 1279.976562 471.644531 C 1279.976562 280.066406 1124.722656 124.789062 933.203125 124.789062 Z M 933.179688 617.046875 C 852.855469 617.046875 787.753906 551.933594 787.753906 471.644531 C 787.753906 391.308594 852.84375 326.183594 933.179688 326.183594 C 1013.488281 326.183594 1078.554688 391.308594 1078.554688 471.644531 C 1078.554688 551.933594 1013.488281 617.046875 933.179688 617.046875 Z M 933.179688 617.046875 " fill-opacity="1" fill-rule="nonzero"/></g><g clip-path="url(#70cdff594f)"><g clip-path="url(#973fdb8050)"><g transform="matrix(1, 0, 0, 1, 676, 211)"><g clip-path="url(#3920e8cae3)"><g clip-path="url(#c7622b19ab)"><g clip-path="url(#d3704e0c92)"><path fill="#ebf5ff" d="M 0.589844 0.652344 L 513.722656 0.652344 L 513.722656 513.789062 L 0.589844 513.789062 Z M 0.589844 0.652344 " fill-opacity="1" fill-rule="nonzero"/></g></g></g></g></g></g></svg>