<svg xmlns="http://www.w3.org/2000/svg" xmlns:xlink="http://www.w3.org/1999/xlink" width="1080" zoomAndPan="magnify" viewBox="0 0 810 1012.49997" height="1350" preserveAspectRatio="xMidYMid meet" version="1.0"><defs><clipPath id="19521c56a1"><path d="M 107.675781 42.503906 L 702.132812 42.503906 L 702.132812 942.808594 L 107.675781 942.808594 Z M 107.675781 42.503906 " clip-rule="nonzero"/></clipPath></defs><g clip-path="url(#19521c56a1)"><path fill="#808080" d="M 531.640625 566.613281 C 531.640625 535.46875 557.003906 510.113281 588.160156 510.113281 C 619.292969 510.113281 644.621094 535.46875 644.621094 566.613281 C 644.621094 597.769531 619.292969 623.113281 588.160156 623.113281 C 557.003906 623.113281 531.640625 597.769531 531.640625 566.613281 Z M 265.3125 838.375 L 281.125 790.714844 L 528.898438 790.714844 L 544.707031 838.375 Z M 221.886719 623.113281 C 190.730469 623.113281 165.375 597.769531 165.375 566.613281 C 165.375 535.46875 190.730469 510.113281 221.886719 510.113281 C 253.03125 510.113281 278.375 535.46875 278.375 566.613281 C 278.375 597.769531 253.03125 623.113281 221.886719 623.113281 Z M 508.953125 730.628906 L 519.019531 760.953125 L 291.003906 760.953125 L 301.066406 730.628906 Z M 312.210938 599.386719 L 497.808594 599.386719 C 501.890625 599.386719 505.183594 602.679688 505.183594 606.753906 C 505.183594 610.828125 501.890625 614.128906 497.808594 614.128906 L 312.210938 614.128906 C 308.140625 614.128906 304.839844 610.828125 304.839844 606.753906 C 304.839844 602.679688 308.140625 599.386719 312.210938 599.386719 Z M 304.839844 466.078125 C 304.839844 462.007812 308.140625 458.707031 312.210938 458.707031 L 497.808594 458.707031 C 501.890625 458.707031 505.183594 462.007812 505.183594 466.078125 C 505.183594 470.160156 501.890625 473.449219 497.808594 473.449219 L 312.210938 473.449219 C 308.140625 473.449219 304.839844 470.160156 304.839844 466.078125 Z M 312.210938 529.046875 L 497.808594 529.046875 C 501.890625 529.046875 505.183594 532.34375 505.183594 536.421875 C 505.183594 540.496094 501.890625 543.789062 497.808594 543.789062 L 312.210938 543.789062 C 308.140625 543.789062 304.839844 540.496094 304.839844 536.421875 C 304.839844 532.34375 308.140625 529.046875 312.210938 529.046875 Z M 172.746094 188.570312 C 172.746094 161.722656 194.585938 139.878906 221.425781 139.878906 L 588.570312 139.878906 C 615.433594 139.878906 637.25 161.722656 637.25 188.570312 L 637.25 356.042969 L 172.746094 356.042969 Z M 702.191406 617.023438 L 702.191406 188.570312 C 702.191406 125.824219 651.34375 74.949219 588.570312 74.949219 L 530.898438 74.949219 L 530.898438 58.722656 C 530.898438 49.773438 523.65625 42.484375 514.683594 42.484375 L 295.363281 42.484375 C 286.394531 42.484375 279.152344 49.773438 279.152344 58.722656 L 279.152344 74.949219 L 221.425781 74.949219 C 158.691406 74.949219 107.808594 125.824219 107.808594 188.570312 L 107.808594 617.023438 C 107.808594 679.773438 158.691406 730.628906 221.425781 730.628906 L 254.457031 730.628906 L 244.390625 760.953125 L 188.957031 760.953125 C 180.074219 760.953125 172.746094 767.648438 172.746094 775.824219 C 172.746094 784.015625 180.074219 790.714844 188.957031 790.714844 L 234.515625 790.714844 L 218.707031 838.375 L 130.902344 838.375 C 121.976562 838.375 114.675781 845.6875 114.675781 854.617188 L 114.675781 859.355469 C 114.675781 868.277344 121.976562 875.566406 130.902344 875.566406 L 206.363281 875.566406 L 193.695312 913.734375 C 189.851562 925.328125 196.128906 937.839844 207.71875 941.695312 C 210.039062 942.460938 212.382812 942.824219 214.6875 942.824219 C 223.960938 942.824219 232.601562 936.945312 235.679688 927.664062 L 252.976562 875.566406 L 557.046875 875.566406 L 574.34375 927.664062 C 577.421875 936.945312 586.0625 942.824219 595.332031 942.824219 C 597.636719 942.824219 599.988281 942.460938 602.304688 941.695312 C 613.894531 937.839844 620.167969 925.328125 616.324219 913.734375 L 603.65625 875.566406 L 679.105469 875.566406 C 688.011719 875.566406 695.34375 868.277344 695.34375 859.355469 L 695.34375 854.617188 C 695.34375 845.6875 688.011719 838.375 679.105469 838.375 L 591.316406 838.375 L 575.507812 790.714844 L 621.035156 790.714844 C 629.972656 790.714844 637.25 784.015625 637.25 775.824219 C 637.25 767.648438 629.972656 760.953125 621.035156 760.953125 L 565.632812 760.953125 L 555.5625 730.628906 L 588.570312 730.628906 C 651.34375 730.628906 702.191406 679.773438 702.191406 617.023438 " fill-opacity="1" fill-rule="nonzero"/></g></svg>